# xmcd
#
# Track frame offsets:
#	150
#	28495
#	45917
#	63467
#	78325
#	90737
#	113045
#	131252
#	146560
#	160295
#	172822
#	184067
#	193767
#	206542
#	221890
#
# Disc length: 3196
#
# Revision: 1
# Processed by: cddbd v1.5.1PL0 Copyright (c) Steve Scherf et al.
# Submitted via: ExactAudioCopy v0.95a4
# Normalized: r0:TDELIM( - )
#
DISCID=d20c7a0f
DTITLE=Various Artist - Rhythm and Soul n°7
DYEAR=2000
DGENRE=Soul
TTITLE0=Gloria Gaynor - Never Can Say Goodbye
TTITLE1=Debarge - Rhythm Of The Night
TTITLE2=Boney M. - Sunny
TTITLE3=Odyssey - Going Back To My Roots
TTITLE4=Aretha Franklin - Chain Of Fools
TTITLE5=Billy Paul - Let 'em in
TTITLE6=Arrested Development - People Everyday
TTITLE7=Edwin Starr - War
TTITLE8=Smokey Robinson and The Miracles - The Tears Of A Clown
TTITLE9=Rare Earth - Get Ready
TTITLE10=Rufus Thomas - Walking The Dog
TTITLE11=The Marvelettes - Beechwood 4-5789
TTITLE12=Diana Ross and The Supremes - Stop. In The Name Of Love
TTITLE13=Harry Belafonte - Try To Remember
TTITLE14=Portrait - How Deep Is Your Love
EXTD=
EXTT0=
EXTT1=
EXTT2=
EXTT3=
EXTT4=
EXTT5=
EXTT6=
EXTT7=
EXTT8=
EXTT9=
EXTT10=
EXTT11=
EXTT12=
EXTT13=
EXTT14=
PLAYORDER=
